<svg width="32" height="32" viewBox="0 0 32 32" fill="none" xmlns="http://www.w3.org/2000/svg">
<path d="M24 7.99996H21.3334C21.3334 5.05329 18.9467 2.66663 16 2.66663C13.0534 2.66663 10.6667 5.05329 10.6667 7.99996H8.00004C6.53337 7.99996 5.33337 9.19996 5.33337 10.6666V26.6666C5.33337 28.1333 6.53337 29.3333 8.00004 29.3333H24C25.4667 29.3333 26.6667 28.1333 26.6667 26.6666V10.6666C26.6667 9.19996 25.4667 7.99996 24 7.99996ZM16 5.33329C17.4667 5.33329 18.6667 6.53329 18.6667 7.99996H13.3334C13.3334 6.53329 14.5334 5.33329 16 5.33329ZM24 26.6666H8.00004V10.6666H10.6667V13.3333C10.6667 14.0666 11.2667 14.6666 12 14.6666C12.7334 14.6666 13.3334 14.0666 13.3334 13.3333V10.6666H18.6667V13.3333C18.6667 14.0666 19.2667 14.6666 20 14.6666C20.7334 14.6666 21.3334 14.0666 21.3334 13.3333V10.6666H24V26.6666Z" fill="black"/>
</svg>
